HIERARCHY
ROOT hip
{
  OFFSET 0 0 0
  CHANNELS 6 Xposition Yposition Zposition Zrotation Yrotation Xrotation
  JOINT abdomen
  {
    OFFSET 0 20.6881 -0.73152
    CHANNELS 3 Zrotation Xrotation Yrotation
    JOINT chest
    {
      OFFSET 0 11.7043 -0.48768
      CHANNELS 3 Zrotation Xrotation Yrotation
      JOINT neck
      {
        OFFSET 0 22.1894 -2.19456
        CHANNELS 3 Zrotation Xrotation Yrotation
        JOINT head
        {
          OFFSET -0.24384 7.07133 1.2192
          CHANNELS 3 Zrotation Xrotation Yrotation
          JOINT leftEye
          {
            OFFSET 4.14528 8.04674 8.04672
            CHANNELS 3 Zrotation Xrotation Yrotation
            End Site
            {
              OFFSET 1 0 0
            }
          }
          JOINT rightEye
          {
            OFFSET -3.6576 8.04674 8.04672
            CHANNELS 3 Zrotation Xrotation Yrotation
            End Site
            {
              OFFSET 1 0 0
            }
          }
        }
      }
      JOINT rCollar
      {
        OFFSET -2.68224 19.2634 -4.8768
        CHANNELS 3 Zrotation Xrotation Yrotation
        JOINT rShldr
        {
          OFFSET -8.77824 -1.95073 1.46304
          CHANNELS 3 Zrotation Xrotation Yrotation
          JOINT rForeArm
          {
            OFFSET -28.1742 -1.7115 0.48768
            CHANNELS 3 Zrotation Xrotation Yrotation
            JOINT rHand
            {
              OFFSET -22.5879 0.773209 7.07136
              CHANNELS 3 Zrotation Xrotation Yrotation
              JOINT rThumb1
              {
                OFFSET -1.2192 -0.487915 3.41376
                CHANNELS 3 Zrotation Xrotation Yrotation
                JOINT rThumb2
                {
                  OFFSET -3.37035 -0.52449 3.41376
                  CHANNELS 3 Zrotation Xrotation Yrotation
                  End Site
                  {
                    OFFSET -1.78271 -1.18214 1.43049
                  }
                }
              }
              JOINT rIndex1
              {
                OFFSET -7.75947 0.938293 5.60832
                CHANNELS 3 Zrotation Xrotation Yrotation
                JOINT rIndex2
                {
                  OFFSET -2.54057 -0.884171 1.56538
                  CHANNELS 3 Zrotation Xrotation Yrotation
                  End Site
                  {
                    OFFSET -1.62519 -0.234802 1.16502
                  }
                }
              }
              JOINT rMid1
              {
                OFFSET -8.24714 1.18213 3.41376
                CHANNELS 3 Zrotation Xrotation Yrotation
                JOINT rMid2
                {
                  OFFSET -3.10165 -0.590103 1.0647
                  CHANNELS 3 Zrotation Xrotation Yrotation
                  End Site
                  {
                    OFFSET -2.48547 -0.328903 0.83742
                  }
                }
              }
              JOINT rRing1
              {
                OFFSET -8.82822 0.546677 1.51678
                CHANNELS 3 Zrotation Xrotation Yrotation
                JOINT rRing2
                {
                  OFFSET -2.60934 -0.819778 -0.0198488
                  CHANNELS 3 Zrotation Xrotation Yrotation
                  End Site
                  {
                    OFFSET -2.33842 -0.294052 0.168128
                  }
                }
              }
              JOINT rPinky1
              {
                OFFSET -8.27202 -0.0477905 -0.4584
                CHANNELS 3 Zrotation Xrotation Yrotation
                JOINT rPinky2
                {
                  OFFSET -1.82734 -0.647385 -0.700984
                  CHANNELS 3 Zrotation Xrotation Yrotation
                  End Site
                  {
                    OFFSET -1.69225 -0.51767 -0.607171
                  }
                }
              }
            }
          }
        }
      }
      JOINT lCollar
      {
        OFFSET 2.68224 19.2634 -4.8768
        CHANNELS 3 Zrotation Xrotation Yrotation
        JOINT lShldr
        {
          OFFSET 8.77824 -1.95073 1.46304
          CHANNELS 3 Zrotation Xrotation Yrotation
          JOINT lForeArm
          {
            OFFSET 28.1742 -1.7115 0.48768
            CHANNELS 3 Zrotation Xrotation Yrotation
            JOINT lHand
            {
              OFFSET 22.5879 0.773209 7.07136
              CHANNELS 3 Zrotation Xrotation Yrotation
              JOINT lThumb1
              {
                OFFSET 1.2192 -0.487915 3.41376
                CHANNELS 3 Zrotation Xrotation Yrotation
                JOINT lThumb2
                {
                  OFFSET 3.37035 -0.52449 3.41376
                  CHANNELS 3 Zrotation Xrotation Yrotation
                  End Site
                  {
                    OFFSET 1.78271 -1.18214 1.43049
                  }
                }
              }
              JOINT lIndex1
              {
                OFFSET 7.75947 0.938293 5.60832
                CHANNELS 3 Zrotation Xrotation Yrotation
                JOINT lIndex2
                {
                  OFFSET 2.54057 -0.884171 1.56538
                  CHANNELS 3 Zrotation Xrotation Yrotation
                  End Site
                  {
                    OFFSET 1.62519 -0.234802 1.16502
                  }
                }
              }
              JOINT lMid1
              {
                OFFSET 8.24714 1.18213 3.41376
                CHANNELS 3 Zrotation Xrotation Yrotation
                JOINT lMid2
                {
                  OFFSET 3.10165 -0.590103 1.0647
                  CHANNELS 3 Zrotation Xrotation Yrotation
                  End Site
                  {
                    OFFSET 2.48547 -0.328903 0.83742
                  }
                }
              }
              JOINT lRing1
              {
                OFFSET 8.82822 0.546677 1.51678
                CHANNELS 3 Zrotation Xrotation Yrotation
                JOINT lRing2
                {
                  OFFSET 2.60934 -0.819778 -0.0198488
                  CHANNELS 3 Zrotation Xrotation Yrotation
                  End Site
                  {
                    OFFSET 2.33842 -0.294052 0.168128
                  }
                }
              }
              JOINT lPinky1
              {
                OFFSET 8.27202 -0.0477905 -0.4584
                CHANNELS 3 Zrotation Xrotation Yrotation
                JOINT lPinky2
                {
                  OFFSET 1.82734 -0.647385 -0.700984
                  CHANNELS 3 Zrotation Xrotation Yrotation
                  End Site
                  {
                    OFFSET 1.69225 -0.51767 -0.607171
                  }
                }
              }
            }
          }
        }
      }
    }
  }
  JOINT rButtock
  {
    OFFSET -8.77824 4.35084 1.2192
    CHANNELS 3 Zrotation Xrotation Yrotation
    JOINT rThigh
    {
      OFFSET 0 -1.70687 -2.19456
      CHANNELS 3 Zrotation Xrotation Yrotation
      JOINT rShin
      {
        OFFSET 0 -36.8199 0.73152
        CHANNELS 3 Zrotation Xrotation Yrotation
        JOINT rFoot
        {
          OFFSET 0.73152 -45.1104 -5.12064
          CHANNELS 3 Zrotation Xrotation Yrotation
          End Site
          {
            OFFSET -1.1221 -3.69964 12.103
          }
        }
      }
    }
  }
  JOINT lButtock
  {
    OFFSET 8.77824 4.35084 1.2192
    CHANNELS 3 Zrotation Xrotation Yrotation
    JOINT lThigh
    {
      OFFSET 0 -1.70687 -2.19456
      CHANNELS 3 Zrotation Xrotation Yrotation
      JOINT lShin
      {
        OFFSET 0 -36.8199 0.73152
        CHANNELS 3 Zrotation Xrotation Yrotation
        JOINT lFoot
        {
          OFFSET -0.73152 -45.1104 -5.12064
          CHANNELS 3 Zrotation Xrotation Yrotation
          End Site
          {
            OFFSET 1.1221 -3.69964 12.103
          }
        }
      }
    }
  }
}
MOTION
Frames:	6
Frame Time:	0.00833333
-227.371 83.282 -22.3449 0.0 0.0 0.0 -2.96287 0.001836 -0.0799153 -0.816451 0.0169086 -0.141251 -5.91054e-14 -7.95139e-16 -3.47873e-16 -1.77574e-13 -6.36111e-15 -9.44227e-16 -0.0 0.0 0.0 -0.0 0.0 0.0 -2.95226e-14 -1.31035e-16 4.96962e-17 -6.18789e-13 -2.4289e-15 -3.77691e-15 -1.06738e-11 3.11555e-12 4.45278e-14 -1.22303e-10 -3.68025e-12 -8.07861e-13 -2.88463e-10 -1.23048e-12 -1.62526e-12 -4.98177e-10 -2.12461e-12 -2.79173e-12 -2.88455e-10 -1.23008e-12 -1.62844e-12 7.73091 5.47488 0.417314 -2.88462e-10 -1.23018e-12 -1.61254e-12 2.90554 0.965183 0.102902 -2.88456e-10 -1.22998e-12 -1.6189e-12 10.2786 0.731801 0.0259123 -2.88472e-10 -1.22889e-12 -1.60618e-12 2.22167 -0.733487 -0.20892 -2.96178e-14 -1.2987e-16 -3.47873e-16 -6.23987e-13 -2.52829e-15 -5.36719e-15 -1.07035e-11 -3.28531e-12 3.81667e-14 -1.22306e-10 2.71311e-12 -7.79236e-13 -2.88529e-10 -1.24486e-12 -1.62208e-12 -4.98265e-10 -2.15324e-12 -2.78776e-12 -2.88534e-10 -1.2424e-12 -1.6189e-12 -7.73091 5.47488 -0.417314 -2.8853e-10 -1.24459e-12 -1.62208e-12 -2.90554 0.965183 -0.102902 -2.88542e-10 -1.24429e-12 -1.62049e-12 -10.2786 0.731801 -0.0259123 -2.8853e-10 -1.24519e-12 -1.62526e-12 -2.22167 -0.733487 0.20892 -2.03217e-16 0.0 -3.88251e-19 -1.77264 -1.93398 0.0122221 -0.00866562 -2.07864 -0.0712199 -0.477224 3.99977 0.135196 2.03217e-16 0.0 3.88251e-19 -2.72849 -9.04328 0.303234 -0.00826739 10.7977 -0.214909 0.538335 -1.76711 -0.0241925
-224.867 81.2902 -28.006 -122.848 85.9746 -109.561 -2.21978 3.81811 -0.846889 -1.18651 -0.430868 -0.279934 0.317251 3.72032 -0.251264 0.978368 -9.6252 -0.201009 -0.0 0.0 0.0 -0.0 0.0 0.0 2.46796e-14 7.49643e-13 3.47058e-14 22.0976 8.6541 0.32019 -4.92962 -2.40198 7.51559 0.00270711 -1.1554 -0.162262 -4.01432e-10 1.95211e-10 1.80475e-10 -6.92561e-10 3.38635e-10 3.10915e-10 -4.01424e-10 1.95214e-10 1.80465e-10 7.73091 5.47488 0.417314 -4.01432e-10 1.95214e-10 1.80484e-10 2.90554 0.965183 0.102902 -4.01424e-10 1.95214e-10 1.80479e-10 10.2786 0.731801 0.0259123 -4.01437e-10 1.95214e-10 1.80487e-10 2.22167 -0.733487 -0.20892 2.45904e-14 7.49641e-13 3.43944e-14 -21.5776 7.29411 -0.574936 4.4981 -2.10233 -6.96101 -0.0985951 -6.97482 0.954213 -4.53305e-10 3.0578e-10 -1.36177e-10 -7.82683e-10 5.28713e-10 -2.38393e-10 -4.5331e-10 3.05782e-10 -1.36174e-10 -7.73091 5.47488 -0.417314 -4.53305e-10 3.0578e-10 -1.36177e-10 -2.90554 0.965183 -0.102902 -4.53316e-10 3.05781e-10 -1.36173e-10 -10.2786 0.731801 -0.0259123 -4.53304e-10 3.0578e-10 -1.36177e-10 -2.22167 -0.733487 0.20892 -2.03217e-16 0.0 -3.88251e-19 -1.37812 -10.619 1.3944 0.0100599 7.05676 0.0932006 -0.850166 -2.04756 -3.21105 2.03217e-16 0.0 3.88251e-19 -1.61894 -14.8197 1.87624 -0.0485082 15.0518 -0.299552 0.622229 -4.22495 0.928744
-225.27 81.3235 -28.0676 -129.369 85.9198 -115.207 -1.32509 7.82486 -1.67529 -1.57909 -0.897193 -0.428942 0.688093 7.64083 -0.520799 1.93595 -19.7627 -0.435517 -0.0 0.0 0.0 -0.0 0.0 0.0 8.4115e-14 1.58083e-12 7.33329e-14 45.3551 17.8001 0.6759 -9.45721 -4.79968 15.4956 -0.00154836 -2.37061 -0.333147 -5.23613e-10 4.01937e-10 3.433e-10 -9.02796e-10 6.97324e-10 5.91185e-10 -5.23605e-10 4.01944e-10 3.43283e-10 7.73091 5.47488 0.417314 -5.23614e-10 4.01943e-10 3.43305e-10 2.90554 0.965183 0.102902 -5.23605e-10 4.01944e-10 3.43301e-10 10.2786 0.731801 0.0259123 -5.23614e-10 4.01942e-10 3.43303e-10 2.22167 -0.733487 -0.20892 8.40314e-14 1.58082e-12 7.31155e-14 -44.2255 14.9975 -1.21233 8.6981 -4.21831 -14.3435 0.0571602 -14.3438 2.01142 -6.21694e-10 6.36314e-10 -2.39787e-10 -1.07396e-09 1.10043e-09 -4.20598e-10 -6.21698e-10 6.36315e-10 -2.39784e-10 -7.73091 5.47488 -0.417314 -6.21694e-10 6.36314e-10 -2.39786e-10 -2.90554 0.965183 -0.102902 -6.21704e-10 6.36315e-10 -2.39779e-10 -10.2786 0.731801 -0.0259123 -6.21691e-10 6.36315e-10 -2.39781e-10 -2.22167 -0.733487 0.20892 -2.03217e-16 0.0 -3.88251e-19 -0.480019 -19.7573 2.98843 -0.0288889 16.719 0.277651 -2.02027 -8.40186 -6.82337 2.03217e-16 0.0 3.88251e-19 -0.0805699 -20.8776 3.63883 -0.076422 19.5505 -0.394545 0.801339 -6.83454 1.94927
-225.631 81.3512 -28.1478 -137.656 85.7271 -122.718 -0.421779 11.4419 -2.42339 -1.93313 -1.32637 -0.557424 1.05125 11.1601 -0.766702 2.70807 -28.8741 -0.678945 -0.0 0.0 0.0 -0.0 0.0 0.0 1.33084e-13 2.24919e-12 1.04018e-13 65.9751 25.9589 1.05621 -12.9418 -6.71108 22.6909 -0.0115416 -3.46609 -0.487579 -6.27369e-10 5.88092e-10 5.44676e-10 -1.08133e-09 1.02016e-09 9.3833e-10 -6.27362e-10 5.88102e-10 5.44653e-10 7.73091 5.47488 0.417314 -6.27371e-10 5.88101e-10 5.44678e-10 2.90554 0.965183 0.102902 -6.27361e-10 5.88101e-10 5.44674e-10 10.2786 0.731801 0.0259123 -6.27367e-10 5.88099e-10 5.44672e-10 2.22167 -0.733487 -0.20892 1.33007e-13 2.24918e-12 1.03879e-13 -64.2648 21.8732 -1.84361 11.9926 -5.93541 -20.9867 0.442587 -20.9004 3.04176 -7.82857e-10 9.1983e-10 -4.05288e-10 -1.35152e-09 1.59045e-09 -7.09605e-10 -7.82861e-10 9.19831e-10 -4.05285e-10 -7.73091 5.47488 -0.417314 -7.82857e-10 9.1983e-10 -4.05288e-10 -2.90554 0.965183 -0.102902 -7.82865e-10 9.19831e-10 -4.05278e-10 -10.2786 0.731801 -0.0259123 -7.82853e-10 9.19832e-10 -4.05279e-10 -2.22167 -0.733487 0.20892 -2.03217e-16 0.0 -3.88251e-19 0.810859 -27.9209 4.62665 -0.122003 25.3269 0.464475 -3.75184 -13.937 -10.2001 2.03217e-16 0.0 3.88251e-19 1.65435 -26.2935 5.4029 -0.0875256 23.5598 -0.486142 1.038 -9.13105 2.86334
-225.902 81.3918 -28.1623 -137.279 85.7388 -121.766 0.280715 14.0931 -2.93107 -2.18622 -1.66274 -0.634484 1.32471 13.6771 -0.941397 3.18619 -35.4216 -0.873331 -0.0 0.0 0.0 -0.0 0.0 0.0 1.55887e-13 2.51051e-12 1.14848e-13 80.2205 31.6525 1.4138 -15.0968 -7.87435 27.7881 -0.0223336 -4.26233 -0.60015 -6.85063e-10 7.22819e-10 8.4243e-10 -1.1806e-09 1.25335e-09 1.45266e-09 -6.85056e-10 7.2283e-10 8.42405e-10 7.73091 5.47488 0.417314 -6.85065e-10 7.22829e-10 8.4243e-10 2.90554 0.965183 0.102902 -6.85054e-10 7.22829e-10 8.42428e-10 10.2786 0.731801 0.0259123 -6.85059e-10 7.22826e-10 8.42424e-10 2.22167 -0.733487 -0.20892 1.55818e-13 2.5105e-12 1.14748e-13 -78.1189 26.688 -2.34868 14.0644 -7.00649 -25.6836 0.866235 -25.4487 3.83482 -9.25956e-10 1.0858e-09 -7.2552e-10 -1.5948e-09 1.87622e-09 -1.26562e-09 -9.2596e-10 1.0858e-09 -7.25516e-10 -7.73091 5.47488 -0.417314 -9.25956e-10 1.0858e-09 -7.2552e-10 -2.90554 0.965183 -0.102902 -9.25964e-10 1.0858e-09 -7.25508e-10 -10.2786 0.731801 -0.0259123 -9.25951e-10 1.08581e-09 -7.2551e-10 -2.22167 -0.733487 0.20892 -2.03217e-16 0.0 -3.88251e-19 2.05057 -33.7125 5.94689 -0.226217 31.2993 0.614412 -5.33686 -17.6334 -12.6632 2.03217e-16 0.0 3.88251e-19 3.13502 -30.1693 6.86086 -0.0868538 26.3457 -0.555369 1.2384 -10.6539 3.48481
-226.118 81.4127 -28.1777 -136.993 85.7653 -121.023 0.598696 15.4075 -3.0632 -2.29936 -1.86863 -0.636625 1.4393 14.7899 -1.00765 3.35467 -38.3791 -0.936138 -0.0 0.0 0.0 -0.0 0.0 0.0 1.41047e-13 2.10183e-12 9.31458e-14 85.6664 33.9042 1.66408 -15.9136 -8.31035 29.8704 -0.0281536 -4.63601 -0.653081 -7.15658e-10 8.32691e-10 1.43626e-09 -1.23346e-09 1.44242e-09 2.47964e-09 -7.15652e-10 8.327e-10 1.43624e-09 7.73091 5.47488 0.417314 -7.15659e-10 8.32699e-10 1.43626e-09 2.90554 0.965183 0.102902 -7.15648e-10 8.327e-10 1.43626e-09 10.2786 0.731801 0.0259123 -7.15655e-10 8.32697e-10 1.43626e-09 2.22167 -0.733487 -0.20892 1.40997e-13 2.10182e-12 9.30211e-14 -83.489 28.6242 -2.58946 14.8556 -7.41395 -27.5976 1.06867 -27.2005 4.16304 -1.12412e-09 1.1127e-09 -1.46854e-09 -1.92585e-09 1.91905e-09 -2.55294e-09 -1.12412e-09 1.1127e-09 -1.46853e-09 -7.73091 5.47488 -0.417314 -1.12412e-09 1.1127e-09 -1.46854e-09 -2.90554 0.965183 -0.102902 -1.12413e-09 1.1127e-09 -1.46852e-09 -10.2786 0.731801 -0.0259123 -1.12411e-09 1.1127e-09 -1.46853e-09 -2.22167 -0.733487 0.20892 -2.03217e-16 0.0 -3.88251e-19 2.63529 -36.2174 6.46769 -0.276934 33.5776 0.674186 -5.97962 -18.9104 -13.5768 2.03217e-16 0.0 3.88251e-19 3.88282 -31.9131 7.69878 -0.084775 27.415 -0.585036 1.30725 -11.0972 3.67934
